<?xml version="1.0" encoding="UTF-8"?>
<svg width="40px" height="40px" viewBox="0 0 40 40" version="1.1" xmlns="http://www.w3.org/2000/svg" xmlns:xlink="http://www.w3.org/1999/xlink">
    <!-- Generator: Sketch 54.1 (76490) - https://sketchapp.com -->
    <title>no-photos</title>
    <desc>Created with Sketch.</desc>
    <g id="web-desktop" stroke="none" stroke-width="1" fill="none" fill-rule="evenodd">
        <g id="interna-resto-1920" transform="translate(-1043.000000, -885.000000)" fill="#2098e944" fill-rule="nonzero">
            <g id="entredas" transform="translate(448.000000, 493.000000)">
                <g id="8" transform="translate(348.000000, 347.000000)">
                    <g id="foto" transform="translate(207.000000, 1.000000)">
                        <g id="no-photos" transform="translate(40.000000, 44.000000)">
                            <path d="M20,0 C8.9465332,0 0,8.94500734 0,20 C0,31.0534668 8.94500734,40 20,40 C31.0534668,40 40,31.0549927 40,20 C40,8.9465332 31.0549927,0 20,0 Z M20,36.875 C10.673523,36.875 3.125,29.3276977 3.125,20 C3.125,16.0174561 4.49615477,12.2460938 7.01354984,9.22332766 L10.4907227,12.7005005 L9.0625,12.7005005 C8.19946289,12.7005005 7.5,13.3999634 7.5,14.2630005 L7.5,27.2994995 C7.5,28.1625366 8.19946289,28.8619995 9.0625,28.8619995 L26.6522217,28.8619995 L30.7766723,32.9864502 C27.7536011,35.5038452 23.9825439,36.875 20,36.875 L20,36.875 Z M23.5272217,25.7369995 L10.625,25.7369995 L10.625,15.8255005 L13.6157227,15.8255005 L23.5272217,25.7369995 Z M15.9869384,13.7771606 L16.4175415,12.9589844 L23.5824585,12.9589844 L24.6517945,14.9905395 C24.921875,15.5038452 25.4544067,15.8255005 26.0345459,15.8255005 L29.375,15.8255005 L29.375,25.7369995 L27.9467773,25.7369995 L15.9869384,13.7771606 Z M32.9864502,30.7766723 L31.0653687,28.8555908 C31.8682861,28.7905884 32.5,28.1195069 32.5,27.2994995 L32.5,14.2630005 C32.5,13.3999634 31.8005371,12.7005005 30.9375,12.7005005 L26.9778442,12.7005005 L25.9085083,10.6689453 C25.6384277,10.1553345 25.105896,9.83398437 24.5257569,9.83398437 L15.4742431,9.83398437 C14.894104,9.83398437 14.3615723,10.1553345 14.0914917,10.6689453 L13.6730957,11.463623 L9.22332766,7.01354984 C12.2463989,4.49615477 16.0174561,3.125 20,3.125 C29.326477,3.125 36.875,10.6723023 36.875,20 C36.875,23.9825439 35.5038452,27.7539062 32.9864502,30.7766723 Z" id="Shape"></path>
                        </g>
                    </g>
                </g>
            </g>
        </g>
    </g>
</svg>